<?xml version="1.0" encoding="utf-8"?>
<!-- Generator: Adobe Illustrator 21.0.0, SVG Export Plug-In . SVG Version: 6.00 Build 0)  -->
<svg version="1.1" id="Layer_1" xmlns="http://www.w3.org/2000/svg" xmlns:xlink="http://www.w3.org/1999/xlink" x="0px" y="0px"
	 viewBox="0 0 1241.8 1241.8" style="enable-background:new 0 0 1241.8 1241.8;" xml:space="preserve">
<style type="text/css">
	.Drop_x0020_Shadow{fill:none;}
	.Round_x0020_Corners_x0020_2_x0020_pt{fill:#FFFFFF;stroke:#000000;stroke-miterlimit:10;}
	.Live_x0020_Reflect_x0020_X{fill:none;}
	.Bevel_x0020_Soft{fill:url(#SVGID_1_);}
	.Dusk{fill:#FFFFFF;}
	.Foliage_GS{fill:#FFE501;}
	.Pompadour_GS{fill-rule:evenodd;clip-rule:evenodd;fill:#5BA4CC;}
</style>
<linearGradient id="SVGID_1_" gradientUnits="userSpaceOnUse" x1="-796.4125" y1="-796.4125" x2="-795.7053" y2="-795.7053">
	<stop  offset="0" style="stop-color:#E1DFDF"/>
	<stop  offset="0.1738" style="stop-color:#DBDAD8"/>
	<stop  offset="0.352" style="stop-color:#CCC9C6"/>
	<stop  offset="0.5323" style="stop-color:#B2AEA9"/>
	<stop  offset="0.7139" style="stop-color:#918C87"/>
	<stop  offset="0.8949" style="stop-color:#6B6664"/>
	<stop  offset="1" style="stop-color:#535050"/>
</linearGradient>
<g id="m3zUOw_2_">
	<g>
		<path d="M844,773.9c-1.3,1.8-2.2,4-3.9,5.3c-2.8,2.2-4.5,4.5-5.9,8c-2.1,5.4-6.1,10.1-9.6,14.8c-3.1,4.2-6.7,7.9-9.7,12.2
			c-0.8,1.1,0.4,3.4,0,5c-0.4,1.4-1.6,2.9-2.9,3.7c-0.5,0.3-2.7-0.9-3.1-1.9c-0.8-1.6-0.9-4.7-3.3-2.9c-1.5,1.1-1.9,4.2-2.2,6.5
			c-0.1,1,1.9,2.2,1.8,3.2c-0.1,2.1-0.8,4.2-1.7,6c-0.3,0.6-2.8,1-3.2,0.5c-1.3-1.4-2.4-3.2-3-5c-0.5-1.8-0.3-3.8-0.4-6.9
			c-4,5.2-7.6,8.9-10.2,13.3c-1.7,2.9,1,3.7,3.6,4.4c3.4,0.9,7,2.2,9.6,4.4c3.3,2.6,2.2,5.3-2.1,5.8c-3,0.4-3.9,1.8-2.3,4
			c6.6,8.9,13,18,20.2,26.4c5.6,6.6,12.8,12,18.1,18.8c3.4,4.3,5.6,9,10.8,12c4.3,2.5,7.3,7.3,10.8,11.1c0.4,0.5,1.1,0.9,1.2,1.4
			c1.7,8,9,11.1,14,16.2c3.1,3.1,6,6.8,7.6,10.8c1.9,5,6,7,9.5,10.1c5.8,5,11.2,10.6,16.8,15.9c3.1,2.9,6.4,5.6,9.5,8.6
			c9,8.7,18,17.5,27,26.2c0.3,0.3,0.9,0.6,1,1c3,10,14.1,11.8,19.5,19.4c1.7,2.4,5.4,3.2,7.7,5.2c1.5,1.3,2.3,3.6,3.4,5.5
			c-1.7,0.9-3.4,1.7-5.2,2.6c2,5,8.4,8,14.4,5.8c5.1-1.9,8.4-0.3,10.8,3.9c4.2,7,9.2,12.7,17.4,15.3c3.3,1,5.7,4.5,8.9,6.3
			c2.7,1.6,5.8,2.4,8.7,3.6c0.4,0.2,1.1,0.1,1.3,0.4c5.8,8.6,17.4,6.5,24.3,13.2c1.3,1.3,4.1,1.4,6.3,1.6c5.7,0.6,11.4,0.5,17,1.5
			c4.1,0.7,7.9,3.1,11.9,4.1c2.5,0.7,5.3,0.5,7.9,0.5c5.1,0.1,10.7-1.2,15.3,0.4c4,1.3,6,0.7,8-2.1c2.5-3.5,5.2-5.1,9.7-3.4
			c3.3,1.2,10.4-5.1,12-9.4c0.7-2,2.1-4.3,3.8-5.4c8.4-5.4,11.8-14.7,17.4-22.2c0.4-0.5,0.6-1.3,0.5-1.8c-2.1-9.8,5.3-16.4,8.4-24.4
			c1.3-3.4,1.3-6.1-0.9-8.9c-2.3-3-3-5.9,0-8.9c0.6-0.6,1.3-1.6,1.3-2.5c0-7.9-0.2-15.7-0.4-23.6c0-0.8-0.7-1.7-1.3-2.5
			c-2.8-4.2-1.9-8.3-0.2-12.7c1-2.6,1.7-6,0.8-8.5c-2.4-6.4-2.6-12.8-2.9-19.5c-0.3-5.3-3.1-10.7-5.8-15.5c-1.6-2.9-3-4.9-0.9-8
			c3-4.4-0.4-7.7-2.5-11.2c-0.7-1.2-2.6-2.5-2.4-3.4c2.1-8.1-4.7-14.3-4.5-22.3c0.1-4.5-3.7-9.2-5.8-13.7c-0.3-0.6-1-1-1.1-1.5
			c-2.2-11.8-11.6-20.1-15.1-31.2c-3.9-12.1-11.8-22-17-33.4c-3.9-8.6-10.5-15-15.9-22.4c-4.3-5.9-8.3-11.9-12.5-17.9
			c-0.3-0.4-0.4-0.9-0.7-1.3c-6-8.6-8.1-8.8-15.3-1.5c-2.6,2.6-5,5.4-7.9,7.6c-2.3,1.7-5.1,3-7.9,3.8c-3.6,1.1-7.4,1.6-11.1,2.4
			c-4.2,0.9-7.2-1.1-8.4-4.5c-3.1-8.3-5-16.6-0.6-25.3c3.3-6.5,12.9-11.6,20.1-9.8c3.7,0.9,8,0.6,11.3,2.4
			c6.2,3.4,11.7,8.1,17.7,11.7c5.3,3.2,9.7,6.7,12.8,12.6c2.6,5,8,8.5,12.1,12.6c0.9,0.9,2.4,1.8,2.4,2.8c0.6,6.2,5.7,7.9,9.9,10.5
			c3.2,2,5.7,4.2,5.6,8.7c0,2,1.7,4.4,3.3,6c3.9,4.2,6.7,8.5,6.9,14.7c0.1,3.3,2.1,6.6,3.4,9.8c2.6,6.4,4.9,12.8,9.9,18.2
			c3.1,3.4,3.3,9.5,5.8,13.6c4.5,7.3,3.5,16.8,9.6,23.3c-0.9,5.3,2.9,8.5,5.1,12.6c1.7,3.2,0.8,7.7,1.4,11.6
			c0.5,3.2,2.1,6.3,2.2,9.5c0.3,9.7,2.7,18.9,5.9,27.9c-4.2,6.2,1.1,10.6,2.5,15.9c1.5,5.5,0.5,11.6,0.5,17.5c0,1.4-0.9,3.2-0.4,4.1
			c3.6,5.6,2.4,12,3.1,18c0.3,2.4-0.7,4.9-0.9,7.4c-0.7,7.3-1.7,14.7-1.8,22c-0.1,3.4,1.4,6.5-3.9,7.3c-3.3,0.5-1.9,3.3-0.5,4.8
			c3.2,3.3,1.7,5.6-0.7,8.6c-1.6,2-2.2,4.9-3,7.5c-0.4,1.2-0.1,2.6-0.6,3.7c-2.9,6.1-5.6,12.4-9,18.2c-1.5,2.5-4.6,4.1-7.1,6
			c-1.2,0.9-3.2,1.3-3.9,2.5c-4.6,8.5-12.5,12.4-20.9,15.8c-7.6,3-15.2,6.2-22.6,9.7c-2.6,1.3-4.5,1.6-7-0.1
			c-4.9-3.5-9.8-3-14.5,0.7c-3.2,2.5-5.9,2.3-8.4-1.3c-0.7-1-2.7-1.4-4.1-1.3c-4.9,0.2-10.8,2.6-14.4,0.7
			c-5.8-3.1-11.7-5.3-17.9-7.2c-1.5-0.4-2.9-1.5-4.3-1.7c-3-0.3-4.7-1.7-6-4.6c-0.6-1.4-3.1-2.7-4.7-2.6c-6.3,0.3-11.4-4-11.4-10.3
			c0-3.3-1.4-3.4-3.9-2.2c-1.5,0.8-3.2,1.5-4.8,2c-3,1-5.4,1-5.2-3.4c0.1-0.8-1.1-2.5-1.5-2.5c-1.8,0.3-3.6,0.9-5.1,1.8
			c-1.4,0.9-2.2,2.7-3.6,3.6c-0.7,0.5-2.4,0.4-3-0.2c-0.6-0.5-0.5-2-0.3-3c0.3-1.6,1.8-3.7,1.2-4.6c-1.8-2.8-4-5.7-6.7-7.6
			c-2-1.5-5.2-1.2-7.6-2.3c-1.3-0.6-3.3-2.8-3.1-3.2c3.8-6.2-2.6-7.3-5.2-8.7c-3.7-2.1-7.8-3.3-10.3-7.2c-0.5-0.8-2.3-1.1-3.3-0.9
			c-0.7,0.2-1.3,1.6-1.5,2.6c-0.4,1.3-0.1,3-0.8,4.2c-1.1,1.9-2.8,3-4.1,0.1c-1.7-3.7-7.2-6.2-4-11.6c0.1-0.2-1.6-2.2-2.1-2
			c-1.7,0.4-3.8,1-4.7,2.3c-2.1,3.3-4.8,4.3-8.5,3.6c-3.2-0.7-4.9-2.3-3.8-5.7c1.5-4.8-2.3-6.9-4.9-9.4c-2.2-2.1-4.6-4.6-8.2-1.4
			c-0.8,0.7-3.5,0.4-4.3-0.4c-1-1-1.3-3.2-1.1-4.7c1.2-7.1-0.6-12.1-5.7-15.2c-6.1-3.7-7.8-3.2-10.3,2.9c-0.3,0-0.9,0.1-0.9,0
			c-2-5.4-5.2-8.6-11.5-8.7c-1.2,0-2.5-3.6-3.7-5.6c-1.7-3-3.3-6-5.1-8.9c-0.5-0.8-1.9-1.7-2.7-1.6c-5.7,0.9-8.3-3.6-12-6.4
			c-1.2-1-2.8-1.6-3.7-2.8c-2-2.5-4.3-5-5.2-7.9c-1-3.5-2.7-5.5-6.2-6.3c-4.6-1-9.1-2.2-9.3-8.3c0-0.6-0.5-1.2-0.8-1.7
			c-3.9-6.4-2.9-9.5,4.3-11.6c1.4-0.4,4.3,0.8,4.9,2.1c1.6,3.2,2.1,6.9,3.4,10.3c0.7,1.8,2,4.7,3.3,4.8c5,0.5,7,3.8,8.8,7.7
			c0.6,1.5,1.1,3.1,2,4.3c1,1.3,2.4,2.7,3.8,3c0.8,0.1,2.4-1.7,3.1-3c3.6-6.6,2-9.2-5.2-11.2c-2.1-0.6-3.7-3.4-5.3-5.3
			c-1.4-1.7-2.6-3.6-3.9-5.4c-0.9-1.2-2.2-2.3-2.8-3.7c-2.3-5.1-5.6-8.9-11.6-9.9c-1.1-0.2-1.9-2-3-2.9c-1-0.8-2.1-1.3-3.2-2
			c-0.2,1.1-0.8,2.4-0.5,3.2c2,4.7-0.7,6.7-4.2,8.6c-1.4,0.7-2.6,1.8-4,2.3c-0.9,0.3-2.3,0.2-2.9-0.4c-0.5-0.5-0.3-1.9,0-2.8
			c0.8-2.6,2.2-5.1,2.7-7.8c0.2-1.1-0.8-2.7-1.7-3.6c-1.2-1.2-3.1-1.8-4.1-3.1c-1.6-2-2-4.1,1.6-4.8c1.6-0.3,3-1,4.5-1.6
			c-0.6-1.2-1-3-1.9-3.4c-1.8-0.8-4-1.2-6-1.1c-1.2,0.1-2.3,1.7-3.5,2.3c-2.8,1.5-3.5,3.1-1.4,6c1,1.3,0.6,3.5,0.8,5.4
			c-1.9-0.7-3.9-1-5.5-2.1c-1.4-0.9-2.5-2.6-3.1-4.1c-1.2-2.8-2.2-5.5,2-7.4c2.5-1.1,4.3-3.9,6.5-6c-6.4-2.4-7.1-2-9.2,3.3
			c-0.5,1.3-1.9,2.4-3.1,3c-0.5,0.3-2.5-0.8-2.5-1.4c-0.1-1.4,0.2-3,0.8-4.2c1.2-2.2,3.1-4,4-6.3c0.5-1.3-0.1-3.5-0.9-4.8
			c-1.5-2.5-3.4-4.6-5.2-6.9c-0.5-0.6-1.2-1.4-1.7-1.3c-0.8,0.1-1.9,0.8-2.1,1.5c-0.3,0.9-0.1,2.2,0.2,3.2c0.3,0.9,1,1.6,1.4,2.5
			c1.5,3.6-0.1,9-3.1,9.5c-4,0.6-6-2.8-6.4-5.7c-0.6-4.4-2.7-5.3-6.6-5.4c-3.1-0.1-5.1-0.1-5.5,3.8c-0.2,1.6-2.2,3.3-3.7,4.5
			c-3.3,2.7-6.6,5.4-10.2,7.7c-1.8,1.2-4.3,2.4-6.2,2.2c-2.9-0.4-4.3,0-4.6,3c-0.4,4.1-2.2,6-6.8,3.4c-0.2,5.3-2.7,7.8-7.1,8.7
			c-0.8,0.2-2,1.5-2,2.3c0,6.4-4.3,8.3-9.8,9.5c2.5,3.8,1.4,6.3-1.7,9c-2,1.7-3.2,4.9-3.9,7.6c-1.5,5.6-4.3,4.4-8.4,0.8
			c-2.6,5.2-4.9,9.7-7.2,14.2c-0.4,0.8-0.5,1.9-1.2,2.6c-5.2,5.3-10.5,10.6-15.8,15.8c-0.8,0.8-1.8,1.3-2.5,1.8
			c4,8.6,2.3,11.7-6.4,13c-1.2,0.2-2.3,1.6-3.1,2.8c-0.6,0.9-0.4,2.2-0.8,3.2c-1.6,4.5-3.4,5.1-11.1,3.8c0.1,0.7,0,1.4,0.3,1.8
			c3.7,5,3.5,5.7-2.1,8.6c-0.1,0.1-0.4,0.1-0.4,0.1c-0.5,6.6-7.6,7.4-10.4,11.9c-3.3,5.3-6.6,10.3-12.8,13c-3.7,1.6-6.8,4.9-10,7.4
			c1,1.3,3.8,3.7,3.4,4.5c-1.1,2.2-3.5,3.8-5.4,5.6c-0.5,0.4-1.3,0.5-1.6,0.9c-4.7,7.6-13.2,9.1-21,12.6c0.8,1.3,1.8,2.2,1.9,3.3
			c0.1,1.2-0.2,3.2-1,3.5c-3.4,1.6-7.1,2.5-10.4,4.2c-2.2,1.1-4.2,2.9-6,4.6c-2.1,2.1-3.4,5.4-5.8,6.6c-5.2,2.6-10.9,4.1-16.3,6.2
			c-2.7,1.1-5.2,2.7-8,3.7c-3.1,1.2-6.3,2.5-9.6,3c-2.9,0.5-5.5,0.5-7.3,3.4c-0.8,1.3-3.3,2.5-4.8,2.3c-8-1.4-16.2-2.1-23.2-7.5
			c-6.4-4.9-13.8-8.3-20.5-12.8c-3.6-2.4-6.8-5.6-9.9-8.7c-2-2-3.5-4.5-5.4-6.7c-3.7-4.1-8.4-7.8-5.7-14.6c-2.4-0.2-3.9-0.4-5.9-0.6
			c0.3-1.4,0.3-2.6,0.8-3.7c1.6-3.5,2.4-6.5-1.1-9.8c-2.4-2.3-0.9-5.9,2.9-6.7c4.1-0.9,5.1-2.9,4.7-6.7c-0.3-3.1-0.4-6.4,0.1-9.5
			c0.3-1.9,1.7-4.5,3.3-5c4.5-1.6,6.4-5,6.5-9c0.1-4.4-3.7-6.5-8-9.3c0.5,2.7,0.8,4.3,1.2,6.3c-8.4-2.3-7,6.1-10.2,9.5
			c-1.9,2-2.9,4.4-5.8,2.9c-2.7-1.5-2.7-3.9-0.9-6.5c0.8-1.2,1.4-2.9,1.4-4.4c0.2-7.3,2.4-13.4,8.9-17.8c2-1.4,2.3-5.2,3.3-7.9
			c0.6-1.9,1-3.9,1.5-5.9c1.6,0.7,3.3,1.5,6,2.7c-0.7-1.7-0.8-3.5-1.7-4.2c-3.1-2.3-3.1-5.7-1.5-8.1c4.9-7.3,7.2-16.3,14.8-21.8
			c4.9-3.6,9.7-7.2,15-11.2c0.2,1.3,0.7,2.4,0.4,3c-2.5,3.7-5.1,7.3-7.7,11c-0.5,0.8-1.7,1.6-1.6,2.2c1.4,8.4-6.1,10.1-10.5,14
			c-0.6,0.5-1.5,0.7-2,1.3c-0.9,1.1-1.6,2.4-2.3,3.6c1.6,0.1,3.2,0.5,4.7,0.3c0.8-0.1,1.4-1.2,2.2-1.7c1.6-1.1,3.3-2,5-3
			c0.7,1.7,0.9,4.1,2.2,5.1c2.5,1.9,5.6,3.2,8.6,4.1c1.2,0.4,3-0.9,4.4-1.5c2.9-1.4,3.4-3.5,0.7-5.4c-3.3-2.5-2.9-4.2-0.2-7.2
			c3.3-3.7,5.5-8.4,8.3-12.6c3-4.4,5.4-9.4,11.6-10.6c2.6-0.5,2.5-2.7,0.5-4.2c-2.7-2.1-1.6-3.7,0.2-5.4c2.5-2.4,5.3-4.6,7.6-7.2
			c1.6-1.8,4.2-5,3.6-6.2c-1.5-3-4.2-6.8-7.2-7.6c-4.3-1.2-8.6-5.9-13.8-0.3c-0.3-0.6-0.7-1.2-1-1.8c1-2.4,1.6-5.2,3.2-7.2
			c3.1-3.9,6.5-7.6,10.2-10.9c1.5-1.3,4.7-2.8,5.8-2.2c2.7,1.7,5,4.5,6.6,7.3c0.5,0.8-1.5,4.2-3,4.6c-2,0.6-4.6-0.1-6.8-0.8
			c-2.8-0.9-4.5-0.3-5.7,2.5c4,1.4,7.7,3.1,11.6,4c1.3,0.3,3.3-1.2,4.5-2.3c2.6-2.6,4.6-5.9,7.5-8.2c5.2-4.3,10.9-8,16.3-12
			c0.7-0.5,1.9-1.6,1.7-2c-1.8-5.6,4.4-11.9-1.5-17.1c-0.5-0.5-0.4-2.3,0.1-3c0.5-0.6,2.3-1,2.8-0.6c2.6,2.3,5,4.9,7.4,7.4
			c0.7,0.8,1.2,1.7,2.1,2.3c0.2,0.2,1.7-0.6,1.8-1.1c0.2-1.1,0.4-2.7-0.1-3.5c-4.9-7.8-4.4-8.8,2.5-15.1c3-2.8,4.2-7.4,6.4-11.1
			c0.6-1.1,1.7-2.9,2.4-2.9c4,0.3,6.2-2.4,8.2-4.9c3.1-4,6-8.2,8.3-12.7c0.9-1.7,0.2-4.3-0.1-6.5c-0.6-3.5-3.4-1.7-5.3-2.2
			c-1.5-0.4-3.8-1.4-4-2.4c-0.2-1.4,1.1-3.2,2.1-4.6c1.2-1.6,2.6-3,4.2-4.3c1.2-1,2.8-1.5,4.2-2.2c0.8,1.5,1.9,3,2.3,4.6
			c0.3,1.2-0.3,2.7-0.6,5c3.1-1.3,5.3-2.4,7.6-3.2c3.9-1.3,1.5-4.1,1.8-6.3c0.3-1.7,1.4-3.5,2.7-4.8c3.2-3.3,6.7-6.3,10.1-9.4
			c0.4-0.3,1-0.7,1-1c-0.4-6.4,4.1-5.4,8.2-6.1c1.3-0.2,3.1-3.8,2.8-5.5c-0.7-4-0.4-6.9,2.9-9.8c3.1-2.6,1.3-4.5-1.7-6
			c-1.4-0.7-3.1-2.4-3.2-3.6c0-1.3,1.5-3.5,2.8-3.9c1.3-0.5,3.4,0.3,4.9,1.1c1.2,0.7,1.7,3.1,2.8,3.3c3.1,0.4,6.4,0.5,9.4-0.3
			c3.1-0.8,3.2-7.3,0.4-10.4c-5.2-5.8-10.2-11.8-15.9-17.1c-7.6-7-12.4-16-18.2-24.2c-6.6-9.4-14.3-18-21.2-27.1
			c-5.1-6.8-9.9-14-14.3-21.3c-3.7-6-6.8-12.5-10.2-18.7c-0.7-1.2-1.5-2.5-2.5-3.4c-2.9-2.5-3.8-5.4-3.5-9.3
			c0.5-6.4-5.2-9.8-10.9-7.1c-1.5,0.7-4.8,0.1-5.6-1c-2-2.8-2.9-6.4-4.6-9.5c-2.2-4-4.8-7.7-7.2-11.6c-2.6-4.1-5.1-8.2-7.8-12.2
			c-0.9-1.4-2.5-2.3-3.7-3.4c-0.4,1.4-0.8,2.8-1.1,4.2c-0.1,0.6,0.2,1.5-0.1,1.9c-5.3,7-1,15.2-2.9,22.6c-1.7,6.9-3.5,13.8-5.1,20.8
			c-0.3,1.5-0.4,3.3,0.2,4.6c3,6,0.4,11.1-2.3,16.1c-2.5,4.7-6.6,8.7-2.3,14.7c0.7,0.9-1.4,4.2-2.7,6.1c-1.4,2.1-1.6,3.5-0.6,6
			c0.8,2.1,0,5-0.7,7.4c-1,3.5-2.6,6.9-3.9,10.3c-0.6,1.6-1.2,3.3-1.7,4.9c-0.8,2.7-2.1,5.4-2.1,8.2c-0.1,6.7-2,12.5-5.8,18
			c-1.2,1.8-0.7,4.6-1.4,6.9c-2.5,8.7-4.9,17.5-7.9,26c-1.9,5.3-5.2,10.1-7.3,15.4c-1.9,4.8-4.2,9.8-4.3,14.8
			c-0.1,5.9-2.8,10.2-5.2,15c-1.9,3.9-3,8.1-4.5,12.2c-1.3,3.5-2.5,7.1-4,10.6c-2.4,5.8-4.9,11.6-7.6,17.2
			c-4.6,9.3-9.2,18.7-14.2,27.8c-4.3,7.7-9.6,14.9-13.9,22.6c-6.3,11.4-11.6,23.4-18.1,34.7c-4.1,7.2-9.7,13.5-14.7,20.3
			c-7.7,10.5-15.2,21.1-23.1,31.4c-4.5,5.8-9.5,11.5-14.8,16.5c-6.5,6.2-13.3,11.8-18,20c-2.6,4.5-8.8,6.7-13.2,10.3
			c-3.7,3-8.2,5.7-10.2,9.6c-3.8,7.5-10.4,11.9-16.3,17c-1.8,1.5-3.5,3.1-5.4,4.5c-3.4,2.5-7.3,4.5-10.3,7.3
			c-3.9,3.7-7.6,7.1-12.7,9.5c-6.2,3-11.6,7.6-17.5,11.3c-1.1,0.7-2.7,1.5-4,1.3c-5.7-0.7-9.9,1.5-14.1,5.1
			c-5.7,4.8-12.5,7.8-20.3,6.6c-2.9-0.4-5.6-1.9-8.5-2.7c-8.1-2.3-16.2-4.3-24.2-6.7c-9.2-2.7-18.6-4.9-27.3-8.7
			c-11-4.9-21.5-11.2-32-17.2c-4.5-2.6-8.7-5.9-12.5-9.4c-7.6-7.1-12.2-16-14.4-26.2c-0.1-0.5-0.1-1-0.4-1.4
			c-4.5-9-4.6-18.7-5.3-28.5c-0.3-4.1-1.1-8.1-1.7-12.2c-0.7-4.7-1.5-9.2,1-13.9c1.2-2.3,1.1-5.6,1-8.4c-0.4-11.1,1.3-21.8,5-32.3
			c1.7-4.9,1.8-10.3,3.4-15.2c3.2-9.7,7-19.3,10.5-28.9c1.9-5.1,3.8-10.2,5.8-15.3c0.7-1.9,1.8-3.7,2.7-5.5c3-6,5.8-12.2,9.1-18.1
			c5.6-9.8,11.2-19.6,17.4-29.1c4.5-7,9.9-13.5,14.7-20.4c10.8-15.4,24.3-28.4,38.8-40.2c6.1-5,14-8,21.2-11.5
			c8.1-3.9,16.5-7.4,24.8-11.1c0.6-0.3,1.1-0.6,1.8-0.7c7.8-1.1,15.5-2,23.3-3.2c10.9-1.7,22,1.3,33-2.2c5.4-1.7,11.8-1.8,17.5-0.7
			c10,1.9,19.1,5.8,24.2,16.1c5.6,11.4,3.1,21.1-4.3,30.2c-2.8,3.5-6.4,6.6-10,9.2c-8.9,6.4-13.6,2.6-19.5-2.2
			c-4.8-3.9-8.6-9.4-11.7-14.8c-1.6-2.8-0.7-7.1-1.1-10.7c-0.5-4.2-0.5-8.6-2.1-12.4c-1.9-4.9-9.5-6.2-14.4-3.7
			c-3.4,1.7-7.3,2.5-10.9,3.9c-3.4,1.3-6.8,2.8-10.1,4.4c-17.1,8.5-30.6,21.5-43.9,34.9c-0.6,0.7-1.6,1.6-1.5,2.3
			c0.4,5-2.8,8.1-5.9,11c-6.4,6-8.1,13.7-10.5,21.7c-1.8,6-7.3,10.8-11.1,16.2c-0.9,1.2-2.9,2.6-2.7,3.4c1.6,6.5-3,10.3-5.7,15.1
			c-3.1,5.4-6.1,11-8.6,16.7c-1,2.3-0.5,5.3-0.9,7.9c-0.6,4.2-1.2,8.3-2,12.4c-1.1,5.1-2.5,10.1-3.7,15.1c-0.6,2.5-1.2,4.9-1.6,7.4
			c-0.3,1.7-0.6,3.5-0.4,5.1c0.5,5.5,1.8,11,1.7,16.4c-0.1,4.2-2.2,8.4-3,12.7c-0.9,5.1-1.4,10.3-1.9,15.4
			c-0.5,4.8-1.2,9.7-1.4,14.5c-0.1,2.4,0.3,5,1.1,7.4c1.2,3.7,1,6.8-0.7,10.5c-1.5,3.1-2.1,7.2-1.5,10.5c1.7,9.8,4.2,19.5,6.2,29.3
			c0.5,2.2,0.2,4.6,0.5,6.9c0.2,1.7,0.2,3.7,1.1,4.9c4.9,6.2,10.3,11.7,17.3,16c11.2,6.8,22.8,7,34.8,3.8c10.9-2.9,21.8-6,32.5-9.5
			c4.7-1.5,9-4.3,13.5-6.6c0.7-0.4,1.4-1.2,2-1.1c6.7,0.9,9.3-4.9,13.7-7.9c10.4-7.1,21.3-13.5,31.9-20.3c3.6-2.3,7.1-4.9,10.3-7.7
			c8.3-7.4,16.1-15.4,24.5-22.6c14.1-12,23.7-27.7,35.3-41.8c5.4-6.7,10.7-13.1,14.1-21.2c2.5-6,7.5-11,10.6-16.9
			c4.1-7.7,7.2-15.9,11.2-23.7c2.6-5.1,6.1-9.6,8.8-14.6c5-9.1,10-18.2,14.6-27.6c2-4,2.8-8.6,4.1-12.9c1-3.1,2-6.3,3.1-9.4
			c2.6-7.4,5.4-14.7,7.7-22.1c2.6-8.4,4.7-16.9,7.3-25.3c1.7-5.6,3.8-11.1,5.7-16.7c0.1-0.1,0.2-0.3,0.2-0.4
			c1.5-6.9,3-13.8,4.5-20.6c0.4-2,0.4-4.5,1.6-5.9c3.3-3.9,2.1-8.3,2.7-12.6c1.1-6.9,3-13.7,4.6-20.5c0.4-1.8,1-3.7,1.5-5.5
			c0.4-1.5,0.3-3.5,1.3-4.5c7.2-8,8.2-17.8,8.3-27.8c0.2-9.8,0.2-9.8,7.1-15.5c-0.1-0.4-0.2-1.1-0.5-1.3c-5.3-2.7-7.8-6.9-6.8-12.8
			c0.8-4.9,1-10.1,2.6-14.8c1.2-3.4,1.4-5.9-0.4-8.9c-1-1.6-1.3-3.8-1.4-5.7c-0.3-4.5-0.3-9-0.4-13.5c0-0.6-0.3-1.4-0.1-1.9
			c3-7.8-1.8-15.5-0.1-23.3c0.3-1.3,0-3.2-0.8-4.1c-4-4.7-3-10.3-2.7-15.6c0.5-7.2,1.1-14.2-3-20.7c-0.5-0.8-0.6-2.3-0.2-3.2
			c2.1-5.2,0-9.2-3.4-12.8c-0.5-0.6-1.2-1.1-1.5-1.8c-2.4-5.6-4.2-11.5-7.3-16.8c-3.3-5.7-7.7-10.8-11.7-16.1
			c-2.4-3.2-4.6-6.7-7.6-9.1c-2.7-2.3-6.4-3.5-9.8-4.9c-2.2-0.9-4.9-1.1-7-2.2c-4.7-2.4-7.8-1.3-9.4,3.9c-0.5,1.5-1.1,3-2,4.2
			c-2.4,3.3-5.4,6.2-7.3,9.7c-3.7,6.5-9.3,12-10.3,19.9c-0.2,1.2-1.3,2.5-2.4,3.3c-4.9,3.9-7.7,8.8-9.2,14.9
			c-0.6,2.3-3.5,4.1-5.4,6.1c-2.5,2.5-5.2,4.8-7.6,7.4c-2.7,2.9-5.2,6-7.6,9.2c-2.8,3.6-6.6,6.3-7.2,11.9c-0.4,3.1-4.8,5.6-7.2,8.5
			c-2,2.4-3.5,5.2-5.4,7.6c-1.5,1.8-3,3.9-5,4.9c-6,3-8.9,8.1-11.8,13.7c-1.5,2.8-4.4,5.4-7.2,6.9c-4.2,2.2-9.3,3-8.7,9.4
			c0.1,0.8-0.8,1.7-1.4,2.4c-2.5,3.2-4.7,6.7-7.6,9.6c-4.9,4.9-10,9.5-15.2,14c-3.9,3.3-8.3,6-12.2,9.3c-2.9,2.5-5.2,5.7-7.9,8.4
			c-5.6,5.5-11,11.2-17,16.4c-2.9,2.5-6.7,4-10.1,5.9c-1.2,0.7-2.9,1.1-3.5,2.1c-4.5,7.1-11.9,11.2-18.1,16.4
			c-3.2,2.7-6.7,6.8-12,3.3c-0.6-0.4-2.2,0-3,0.6c-8.4,5.3-16.4,11.8-25.4,15.9c-5.9,2.7-11.4,5.2-15.9,9.8
			c-0.2,0.2-0.6,0.5-0.8,0.4c-5.9-1.3-10.9,1.6-16.2,3.2c-6.9,2.1-14,3.8-21.2,4.6c-7.3,0.8-14.8,0.7-22.2,0.1
			c-2.9-0.2-4.3-3.3-3.5-6.8c0.3-1.1-0.8-2.5-1.3-3.7c-0.8,1-2.3,2-2.3,3c-0.3,5.3-2.5,5.9-6.8,3.7c-2.4-1.3-5.1-2.4-7.7-3
			c-1.2-0.3-2.8,0.8-4.2,1c-1.7,0.3-3.5,0.7-5.2,0.4c-2.7-0.4-5.2-1.7-7.9-1.7c-2.9,0-4.9-0.3-6.2-3.2c-0.5-1-1.7-2.3-2.6-2.4
			c-9.6-0.6-16.5-7.5-24.9-10.9c-0.3-0.1-0.6-0.3-0.8-0.5c-5.5-7.3-11.3-14.4-16.5-21.8c-3.8-5.5-7.2-11.3-10.2-17.3
			c-1.9-3.8-3-8-3.7-12.4c4.4,2.3,7.5,5.3,8.9,9.9c0.7,2.3,1.6,4.7,2.9,6.7c8,11.9,18.4,21.4,31.2,28.1c5.2,2.7,10.9,4.3,16.3,6.5
			c4.5,1.8,8.8,4.3,13.4,5.3c4.7,1.1,9.7,0.9,14.6,1c10.6,0,21.3-0.6,31.9-0.1c5.4,0.2,9.2-2.3,13.6-4.2c3.1-1.4,6.8-1.5,10.2-2.2
			c1.9-0.4,4.3-0.3,5.6-1.4c6.3-5.2,13.6-8.3,21-11.3c2.6-1.1,4.9-3,7.3-4.4c9.2-5.3,18.4-10.5,27.5-15.7c0.8-0.5,1.6-1,2.2-1.7
			c4-4.2,8-8.5,11.8-12.8c3-3.4,5.8-6.1,10.9-6.6c2.3-0.2,4.2-4.8,6.4-7.3c2.3-2.8,4.7-5.5,7.1-8.2c7.1-8.2,14.3-16.5,21.4-24.7
			c0.7-0.8,1.6-1.7,2.5-2c5.4-1.4,8.1-5.7,11.3-9.7c2.6-3.2,5.9-5.9,8.7-9c1.8-2,2.9-4.6,4.8-6.4c5.5-5.1,11.1-10,16.8-14.8
			c2.4-2,1.5-3.4-0.4-4.9c-3.1-2.5-1.6-5,0.9-5.9c4.9-1.6,6.1-6.2,8.7-9.5c4.5-5.8,8.3-12.2,12.5-18.3c2.7-3.9,5.8-7.4,8.6-11.3
			c4.7-6.7,9.3-13.6,13.9-20.4c0.7-1,1.2-2.2,1.5-3.4c1.3-5.1,4.8-8,10.2-8c4.2,0,7.1-0.5,5.3-5.9c-0.3-0.8,1.2-2.7,2.2-3.3
			c4.8-2.4,4.9-2.8,2.3-7.3c-0.6-1-0.3-2.8,0.2-3.9c2.3-4.9,6.4-8.7,7.6-14.6c0.8-4,4-8.3,9.9-8c1.8,0.1,5.1-1.5,5.4-2.8
			c0.5-2.2-0.1-5.4-1.4-7.3c-5.1-7.2-9.5-14.4-11.4-23.4c-1.2-5.4-5.9-10.1-9.2-15c-0.8-1.1-2.2-1.8-3.2-2.8c-2.9-3-2.1-6.7,1.8-8.2
			c0.6-0.2,1.3-0.3,1.8-0.6c2.2-1.3,6.5,0.3,6.5-4.1c0.1-4.8-1.8-9-6.1-11.1c-5.5-2.6-11.5-4.1-17-6.6c-7-3.2-13.8-6.1-16.5-15
			c-1.3-4.4-6.3-8.5-10.6-11.1c-6.9-4.1-13.6-7.9-17.3-15.6c-0.8-1.7-3.6-2.9-5.7-3.4c-4-1-7.1-2.6-8.1-6.9c-1.1-4.4-4-7.2-8.2-8.6
			c-3.1-1-4.4-2.6-4.4-5.9c0-1.4-0.7-3.2-1.7-4c-6.4-5-13.2-9.6-19.6-14.6c-1.4-1.1-2.6-3.2-2.9-5.1c-0.8-4-3.1-6.5-7-6.7
			c-8.1-0.4-12.2-6.4-17-11.5c-0.8-0.9-1.5-2.7-2.4-2.7c-6.8-0.4-9.5-6.5-14.2-9.8c-7.1-4.8-14.5-9-22.2-13
			c-12.5-6.4-25.4-3.9-38-5.5c-7.7-1-14.9,1.3-22.4,0c-5.3-1-10.3,0.5-14.4,4.7c-2.1,2.1-4.6,4.5-7.3,5.1
			c-10.6,2.6-16.1,11-19.9,19.4c-4.7,10.7-11.5,20.6-12.2,33.2c-0.5,8.5-4,16.9-5.2,25.4c-0.8,6,0.2,12.2,0.4,18.4
			c0.1,2.2,0.4,4.4-0.1,6.5c-1.3,4.9-1.9,9.3,1.1,14.1c1.5,2.5,0.4,6.5,0.9,9.7c0.5,3.3,1.5,6.6,2.4,9.8c0.4,1.4,1.4,2.7,1.3,4
			c-0.8,6.9,1.8,12.8,4.6,19c2.4,5.3,2.8,11.5,4.2,17.2c0.6,2.3,1.7,4.5,2.3,6.8c2.1,8.2,9.1,14.6,9.2,23.5c0,0.6,0,1.4,0.4,1.8
			c5.2,5.1,8.1,11.4,11.1,17.9c3.7,7.7,8.9,14.6,13.7,21.7c1.5,2.2,3.6,4,5.7,5.7c6.6,5.7,13.3,11.4,20,16.9
			c4.4,3.6,9.1,6.8,13.3,10.5c1.4,1.3,1.9,3.6,2.6,5.6c0.3,1-0.2,2.3,0,3.3c0.9,3.9,2.2,7.7-2,10.7c-3,2.2-6.1,4.3-8.7,7
			c-5.8,6.2-9.8-1.3-14.7-1.7c-1.4-0.1-3.2-1.5-3.9-1c-5.2,3.7-8.4-0.5-12.3-2.5c-3.6-1.8-7.9-2.8-11-5.2c-5.2-4-10.3-8.4-14.6-13.4
			c-5.7-6.7-10.9-13.9-15.8-21.3c-4.4-6.6-10.6-12.1-12.4-20.5c-0.8-3.7-3.1-7.2-5.2-10.4c-5.7-8.9-6-20.7-14.7-28.1
			c-0.4-6.7-5.2-12.9-5.2-18.9c0-11.5-3.7-21.6-6.8-32.1c-0.7-2.5-0.8-5.2-1.2-7.8c-0.4-2.4-0.8-4.8-1.4-7.2
			c-0.5-2.1-1.5-4.2-1.6-6.4c-0.2-8.6-0.2-17.2-0.1-25.8c0-2,0.9-4,1.3-6c0.8-4.8,2.3-9.7,2.3-14.5c-0.2-10.5,2.3-20.2,6-29.8
			c0.6-1.5,1.5-2.9,1.7-4.4c2-16,11.2-28,21.9-39c12.4-12.9,28.2-20.6,44.1-28.1c6-2.8,13.1-3.3,19.7-4.9c4.4-1.1,9.1-1.7,13-3.7
			c6.3-3.2,12.7-2.1,19.1-2c9,0.2,18.4,1.5,27-0.3c9.8-2.1,16.9,2.3,25,5.6c6.7,2.8,13.9,4.5,20.9,6.7c1.5,0.5,2.9,1.2,4.3,1.9
			c5.5,2.6,11.3,4.8,16.5,7.9c3.6,2.1,6.5,5.5,9.7,8.3c2.3,2.1,4.4,4.3,6.9,6.2c2.1,1.6,3.2,2.4,0.4,4.9c-4.1,3.6-7.3,8.3-11,12.7
			c2.1,2.7,3.9,1.3,5.9-0.4c3.1-2.7,6.3-3.8,10,0.7c0.2-2.4,0.4-4.7,0.4-7.1c0.2-4.7,2.3-5.9,6.3-3.8c3.4,1.8,7.1,3.2,10.5,5
			c1.8,0.9,4.3,2.4,4.5,3.9c1.2,8.1,8.3,8.6,13.7,11.5c1.4,0.7,2.9,1.4,4,2.5c7.5,7.2,15.2,14.3,22.4,21.9
			c6.1,6.4,11.6,13.4,17.3,20.1c0.7,0.8,1.6,2.3,2.3,2.2c8.8-0.5,11.7,8.6,18.7,11.1c0.9,0.3,1.7,1.5,2,2.5c1.6,5.3,5.9,8,9.7,11.4
			c5.4,4.8,10.1,10.3,15,15.7c1.3,1.4,2,3.2,3.2,4.8c1.7,2.3,3.5,3.2,5.5,0c1.9-3,4-4.3,8-2.5c1.9,0.9,5-0.8,7.6-1.3l-0.1-0.1
			c-1.5,2.8-2.8,5.7-4.7,8.2c-0.8,1.1-3,1.2-4.6,1.4c-3.3,0.5-4.3,2.3-2.3,4.8c2.3,2.8,4.8,5.5,7.4,8.1c1.7,1.7,4.4,2.4,4.5-0.8
			c0.2-7.5,5.7-11.8,9.6-16.9c3.3-4.4,8-7.7,11.9-11.7c3.7-3.8,6.8-7.9,6.3-13.8c-0.3-3,1.5-4.4,4.4-4.3c2.9,0.1,4.1-0.9,4.7-4
			c0.3-1.5,3.1-3.5,4.9-3.7c3.7-0.3,5.8-1.3,6.7-5.2c0.7-2.9,2.4-5.6,3.6-8.2c-2.7-1.3-5.1-2.3-7.3-3.7c-1.4-1-3.4-2.7-3.3-3.9
			c0.1-1.3,2.4-2.5,3.8-3.7c0.3-0.3,1-0.2,1.3-0.5c1-0.8,2.6-1.7,2.7-2.7c0.1-0.9-1.2-2.4-2.2-3c-4.8-3-5-5.5-1.1-9.2
			c4.2-4.1,8.1-8.7,12.1-13.1c-0.5-0.2-1.1-0.3-1.6-0.5c-0.4-2.7-1.9-6-0.8-8.1c1-2.1,4.5-2.9,7-4.2c0.4,0.4,0.7,0.8,1.1,1.2
			c-0.6,2.7-1.2,5.4-1.8,8c4.2,2.1,10.7-1.7,10.6-6.6c-0.1-3.7,1.4-4.7,4.6-5.2c1.2-0.2,2.4-1.5,3.4-2.5c2.8-2.8,5.4-5.7,8.1-8.5
			c0.3-0.3,1-0.4,1.2-0.8c3-6.2,8.7-9.3,13.9-13c4.6-3.2,3.1-6.4-0.2-10c-1,0.9-1.9,2.4-3,2.7c-2.1,0.5-4.9,1-6.3,0
			c-2.6-1.9-4.8-3.3-8.2-2.3c-1.1,0.3-3.6-0.6-3.9-1.5c-0.5-1.3-0.2-3.7,0.7-4.6c2.8-2.7,6.1-5,9.2-7.4c0.6-0.5,1.9-0.7,1.9-1.2
			c0.6-4.1,3.6-6.2,6.4-8.8c4.1-3.8,7.4-8.5,11.1-12.8c0.2-0.2,0.6-0.6,0.7-0.5c4.4,1.2,8.7,2.4,13,3.7c-0.7,1.7-1,4.3-2.3,5
			c-2.3,1.2-5.3,1.8-7.9,1.7c-2.6,0-4.5,0-4.8,3.1c-0.6,6.3-0.6,6.3-6.4,4.7c-1.9,1.4-3.7,2.6-5.3,4c-0.8,0.6-1.2,1.6-1.8,2.5
			c1,0.6,2,1.8,2.9,1.7c4.3-0.4,5.8,1.5,5.5,5.6c-0.2,2.4,0.8,3.4,3.5,2.9c1.8-0.3,3.9,0.5,7.2,1c1.4-2.1,5.3-4.2,5.4-9.5
			c0-1.8,2.4-3.7,4.1-5.3c3.6-3.5,6.9-8,11.2-10c8.4-4,13.7-11.1,20-17.2c0.6-0.6,1.2-1.6,1.2-2.4c-0.1-4.2,3.7-5,5.9-4.6
			c4.6,1,5.5-1.4,6.5-4.8c0.3-1.1,1-2.1,1.5-3.2c6.6,3.8,6.4,3.7,10.9-2.7c2-2.8,4.6-5.3,7.4-7.3c9.3-6.5,18.9-12.6,28.2-19
			c4.2-2.8,8.5-2.6,12.6-0.4c3.3,1.8,3.2,4.1,0.3,6.5c-1,0.9-1.7,2.1-2.5,3.3c-1.6,2.3-2.7,5-6.7,3.6c-1-0.4-3.5,1.6-4.4,3.1
			c-2.3,3.4-3.8,7.3-6.1,10.6c-1.1,1.6-3.4,2.7-5.3,3.3c-4.2,1.1-5.4,2.7-3.9,6.8c0.9,2.4,1,4.7-1.8,4.6c-8.5-0.5-11.5,6.2-16.1,11
			c-2,2-4.7,3.4-6.8,5.2c-1.2,1-2.5,2.4-2.8,3.8c-1.2,5.3-3.2,7.2-8.6,7.3c-3.9,0.1-4.5,1.2-3,4.6c0.6,1.3,0.7,4.1,0.4,4.2
			c-1.8,0.6-4,1.1-5.7,0.5c-1.4-0.5-2.4-2.4-3.5-3.8c-1.9-2.7-3.8-2.3-5,0.4c-1.9,4.3-3.3,8.7-5,13c-0.5,1.3-1.3,2.5-2.3,3.5
			c-4,4.1-8,8.1-12.1,12.1c-1,1-2,2.2-3.3,2.7c-3.9,1.6-6.7,3.4-5.6,8.5c0.2,0.8-2.8,3.1-4.5,3.3c-3.8,0.5-5.8,1-3.5,5.6
			c1.9,3.8-0.7,7-3.8,8.7c-3.6,2-4.5,4.7-4.1,8.3c0.6,5-0.9,9.2-5,12.1c-1.6,1.1-4,2-5.9,1.8c-3-0.4-4.1,0.4-4.2,3.4
			c0,1.4-0.1,3.1-0.9,4c-5.8,7.1-11.9,14-17.8,21.1c-1,1.2-1.5,3-1.5,4.6c0.2,5.4-2.1,9-6.6,12.2c-3.8,2.8-7,6.9-9.5,11
			c-2.5,4.1-6.3,7.7-6.1,13.3c0,1-3.7,2.3-5.8,3.3c-1.3,0.6-2.8,0.9-4.2,1.4c0.5,1.3,1,2.5,1.4,3.8c0.7,1.8,1.3,3.6,2,5.4
			c-2.3,0.3-4.5,0.9-6.8,0.7c-1.3-0.1-2.3-1.6-3.7-2.1c-1.3-0.4-2.9-0.5-4,0c-0.5,0.2-0.5,2.2-0.4,3.3c0.1,6.4-1.2,12.3-4.2,18.2
			c-1.7,3.4-2.5,9-0.9,12c3.9,7.1,8.7,13.7,15.5,18.9c7,5.4,12.7,12.4,18.6,19.1c1.7,2,1.7,5.4,3.2,7.6c3.6,5.2,7.6,10.1,11.4,15.3
			c1.1,1.5,1.7,3.3,2.6,4.9c3,5.1,6.1,10.1,9.1,15.2c1.8,3,3.3,6.2,5.3,9c2.5,3.5,5.5,6.7,7.9,10.2c6.7,10,13.1,20.1,19.7,30.1
			c1.6,2.4,3.6,4.7,5.9,6.7c6.5,5.6,6.3,14.8,11.6,21c4.9,5.8,9.4,11.9,14.1,17.9c3.9,4.9,7.8,9.9,11.7,14.8c0.4,0.5,0.7,1,1.1,1.5
			c8.2,10.5,16.7,20.8,24.5,31.5c4,5.5,6.4,12.2,10.4,17.8c5.1,7.1,11,13.5,16.5,20.3c6.6,8.2,13,16.6,19.7,24.8
			c5.1,6.3,8,6.4,14.3,1.1c7.7-6.6,15.1-13.5,23.3-19.4c3.1-2.3,7.9-2.5,12.1-3c1.1-0.1,2.4,2.3,3.6,3.6c0.8,0.9,1.5,2.5,2.2,2.5
			c1,0,2.5-1.1,2.9-2c1.8-4.7,5.1-6.3,10-6.5c1.5-0.1,2.9-2.9,4.3-4.5c-1.7-0.4-3.5-0.7-5.1-1.2c-1.5-0.5-3.4-0.8-4.2-1.9
			c-0.6-0.8,0-3.6,0.8-3.9c6.5-2.6,10.6-7.8,15.1-12.5c1.5-1.5,3-3.1,5.1-0.7c2.2,2.4,1.2,4.2-1,6c-1.8,1.5-3.3,3.3-5,5
			c0.4,0.5,0.8,0.9,1.2,1.4c1.5-0.8,3.1-1.6,4.6-2.5c3.5-2.1,6.9-4.1,10.3-6.3c0.8-0.5,1.8-1.7,1.7-2.4c-0.1-0.7-1.4-1.4-2.3-1.8
			c-0.9-0.3-2,0.1-2.8-0.3c-1.3-0.6-3.4-1.7-3.4-2.5c0.1-1.4,1.2-3.2,2.4-4.1c3.4-2.7,7.1-5.2,10.8-7.5c3-1.9,6.2-3.5,9.3-5.3
			c0.8-0.5,1.7-0.8,2.5-1.3c2.7-1.8,5.3-3.6,7.9-5.3c0.9-0.6,2.1-1,2.8-1.7c2.9-2.8,6.3-5.4,8.4-8.8c3.7-5.8,10-7.2,15.3-10.2
			c2.1-1.2,3.7-3.4,5.6-4.9c1.6-1.3,3.4-2.5,5.3-3.4c2.9-1.3,6.2-1.9,9-3.5c4.9-2.8,9.5-6.2,14.3-9.2c1.5-0.9,3.1-2.2,4.7-2.2
			c9.1,0,14.5-6.5,21.2-11c2.9-1.9,6.7-5.7,11.4-2.4c0.7,0.5,3.3-0.8,4.1-1.9c3.4-4.5,7.4-7.2,13.4-6.3c1.2,0.2,2.7-0.7,3.9-1.2
			c0.9-0.4,1.6-1.2,2.4-1.5c6.3-2.1,12.6-4.3,19.1-6.1c4.3-1.2,7.8-4.6,7.9-10.1c0.1-5.9,2.3-10.6,5.1-15.6c1.3-2.3,1.5-5.5,1.3-8.3
			c-0.5-6.7,1.8-11.6,7.8-14.9c4-2.2,7.6-5,11.3-7.8c1.1-0.9,1.7-2.5,2.5-3.8c-1.3-0.7-2.5-1.6-3.9-2c-4.2-1-5-2.4-2.9-6.3
			c2.3-4.3,4.8-8.5,7.6-12.5c2.4-3.4,4.7-6.4,5-11c0.2-2.5,2.9-5,4.8-7.3c1.5-1.8,3.7-3,5.4-4.7c2.3-2.3,3.7-4.8-0.8-6.4
			c-2.8-1-2.6-3-1.2-5c2.1-3,4.2-5.9,6.4-8.8c0.2-0.3,0.7-0.5,0.7-0.7c-1.3-5.9,2.8-10.6,3.6-16c0.1-0.9-0.5-2.2,0-2.8
			c4-5.9,4.8-12.9,7-19.4c1.5-4.4,3-8.8,4.6-13.2c0.7-1.9,1-4.2,2.3-5.7c2.7-3,3.4-6.1,3-10c-0.1-1.4,1.1-3.2,2.2-4.4
			c3.8-4.1,5.6-8.4,5.1-14.2c-0.5-5.9-1.6-12,2.4-17.5c0.6-0.8-0.1-3.1-1-4.2c-2.4-3-2.3-5.5,0.9-7.7c2.6-1.8,3.3-4.1,3.1-7.3
			c-0.4-5-0.2-10.2,0.2-15.2c0.5-5.5-4.8-5.8-7.4-8.3c-0.7-0.6-3.7,0.9-5.5,1.8c-3,1.5-6.2,2.8-8.6,4.9c-3.1,2.6-5.9,5.8-8.3,9.1
			c-3.3,4.4-6,9.2-11.6,11.3c-1.7,0.6-3.3,2-4.6,3.3c-3,3-6.1,5-10.6,5.6c-3.3,0.5-6.2,3.4-9.3,5.4c-6.8,4.4-13.6,8.9-20.4,13.4
			c-0.8,0.5-1.8,0.9-2.3,1.6c-4.5,6.9-11.6,9-19,11c-2.3,0.6-4.1,3.3-6.1,5.1c-5.5,4.8-10.7,9.9-16.5,14.2c-2.9,2.2-6.9,3-10.4,4.1
			c-5.1,1.6-8.5,4.6-9.9,9.8c-0.2,0.8-0.9,1.9-1.6,2.1c-6.8,2.5-12.2,6.8-16.9,12.3c-3.8,4.4-8.1,8.2-14,10.1
			c-6.3,2.1-6.3,3.2-3.8,10c-2.9,1.2-6.1,2.2-8.8,3.8c-2.3,1.4-4.1,3.6-6.2,5.5c-1.3,1.2-2.6,3.3-4,3.5c-4.5,0.5-7,3.5-8.5,6.9
			c-1.9,4.1-5.1,6.2-8.7,8.4c-3.5,2.1-6.4,4.4-6.5,9.2c0,1.1-2.8,2.2-4.4,3.2c-1.6,1-3.3,1.7-4.8,2.8c-2.7,2.1-5.3,4.4-8,6.6
			c-0.5,0.4-1.2,0.4-1.7,0.8c-9.2,7.7-18.4,15.4-27.6,23c-3,2.5-6,5.2-9.2,7.6c-4,3-6.6,6.4-7.8,11.5c-0.7,2.9-4,5.2-6.2,7.7
			c-0.6,0.7-1.6,1-2.4,1.6c-7.2,6-14.4,11.9-21.5,17.9c-6.8,5.7-12.1,5.4-17.6-1.5c-5.8-7.4-11.2-15-16.7-22.6c-2.2-3-0.4-7,4-7.5
			c4.8-0.5,7.5-2.6,9.1-7c0.5-1.4,2-2.4,3.1-3.5c5.6-5.1,11.3-10.1,16.6-15.4c1.5-1.5,1.9-4,3-5.9c1.5-2.6,3-5.3,5.1-7.4
			c2.7-2.7,5-5.3,4.5-9.5c-0.1-0.4,0-1,0.3-1.4c4.2-5.2,8.4-10.5,12.6-15.7c0.9-1.1,1.7-2.3,2.8-3.1c1.5-1.1,3.3-2.6,5-2.6
			c3.7,0,4.2-1.5,2.2-3.9c-2.7-3.2-1.7-5.1,1.2-7.5c1.6-1.3,3.4-3.6,3.3-5.4c-0.3-4.9,2.4-7.7,5.6-10.5c2.4-2.1,3.9-4.3,3.5-7.8
			c-0.7-5.5,2.6-9.4,6.5-12.6c3.5-2.9,4.6-6.6,6.2-10.7c2.3-6,1.5-12.9,6.6-18.3c2.8-3,2.8-8.5,4.1-12.8c1.7-5.5,3.6-10.9,5.3-16.4
			c1.3-3.9,2.4-7.8,3.8-11.7c1.1-3.2,2.5-6.2,3.8-9.3c0.2-0.4,0.5-0.9,0.5-1.3c-0.9-13.8,6.8-25,10.9-37.3c0.2-0.5,0.4-0.9,0.3-1.4
			c-0.4-9.9,4.3-18.1,7.8-26.9c2.4-6,3.3-12.6,4.9-19c1.3-5.2,2.7-10.3,3.9-15.5c0.7-3.1,1.5-6.2,1.8-9.3c1.1-11.5,2.1-23,3.2-34.6
			c0.3-2.8,1.1-5.6,1.3-8.4c0.2-3.8-0.5-7.6,0.1-11.3c0.8-5.1,2-10.2,3.9-14.9c0.9-2.3,1.6-3.9,0.1-6c-3.5-4.9-4.1-10.9-8.2-15.8
			c-5.7-6.8-12.3-8.1-19.9-6.6c-3.7,0.7-6.1-0.2-8.5-2.6c-2.5-2.5-2.9-4.4,0.7-6.2c1.1-0.6,2.4-1.8,2.7-2.9c0.3-1.1-0.5-2.5-0.8-3.8
			c-1,0.6-2.3,1.1-2.8,2c-1.5,2.5-2.4,5.3-3.9,7.9c-0.7,1.2-1.7,2.3-2.9,3c-2.4,1.3-4.9,2.4-7.4,3.4c-0.7,0.3-1.7-0.2-2.6-0.4
			c0.2-0.9,0.3-2,0.8-2.7c2.4-3.6,5.2-7,7.3-10.8c0.6-1.1-0.8-4.6-1.3-4.6c-2.1,0-5.4,0.3-6,1.5c-1.9,3.8-4.2,5.6-8.5,5.6
			c-1.4,0-2.8,1.8-4.3,2.4c-2,0.8-5,2.2-6,1.4c-2.5-1.9-4.1-5-6-7.6c3-2.1,5.7-5.1,9.1-6.2c5.8-1.8,12.3-0.5,17.8-3.9
			c0.3-0.2,0.6-0.2,0.9-0.1c9.2,1.5,18.6,2.3,27.4,4.8c10.3,3,19.7,7.9,31.1,7.6c5.3-0.1,11.3,3.8,16.1,7.1
			c13,8.9,25.7,18.4,38.4,27.8c4,2.9,7.6,6.3,11.1,9.8c1.4,1.4,2.1,3.6,3.1,5.4c-0.3,0.4-0.7,0.8-1,1.2c-2.2-0.7-4.6-0.9-6.4-2.1
			c-4.6-2.9-9-6.3-13.6-9.2c5.7,6.8,10.1,15,20.2,17.1c0.8,3-0.5,4.8-3.6,5.7c-4.5,1.3-6.3,3.5-5.1,8.8c0.8,3.4-0.4,7.6-1.6,11.1
			c-1.7,5-4.3,9.8-6.5,14.6c-3.3,7.3-6.3,14.7-10.2,21.7c-2.7,4.8-1.6,9.9-2.7,14.7c-0.9,4.2-4.1,7.8-5.6,11.9
			c-2.3,6.8-5.6,13.8-5.5,20.7c0.2,11.2-2,20.9-8.6,29.9c-3.8,5.1-7.1,10.6-10,16.2c-1.6,3.1-3.1,6.9-2.7,10.1
			c0.8,7.5-2.4,13.9-4.3,20.6c-1.5,5.1-4.2,9.8-6.9,14.5c-2.2,3.9-2.7,7.7-1.5,11.9c1.2,3.9,3.1,4.1,6.8,2.6
			c19.3-7.7,31.7-24.3,47.9-35.9c2.3-1.6,5-2.7,7.2-4.4c6.2-4.8,12.3-9.9,18.5-14.7c6.5-5,12.9-10.2,19.7-14.7
			c3.6-2.4,6.4-6.9,11.9-5.9c0.4,0.1,1.5-1.7,1.5-2.5c-0.1-4.1,2.9-6,5.5-8.4c2.1-1.9,4.6-3.8,5.7-6.2c3.1-6.9,8-9.3,15.5-10.3
			c4.9-0.7,9.4-5.2,13.9-8.1c3.6-2.3,6.7-5.3,10.5-7.2c3.8-1.9,7.1-4.2,10.5-6.9c4.3-3.5,10.2-4.9,15.5-7c2.6-1.1,5.3-2.6,8-2.8
			c4.1-0.4,8.8-1,12.4,0.6c10,4.3,19.7,9.4,29.3,14.6c6.9,3.8,13.5,8.1,20.1,12.4c3.7,2.4,4.6,5.8,3,10c-0.6,1.5-1.2,3.6-0.6,5
			c2,5.3,4.1,10.6,6.9,15.5c2,3.6,1.2,6.1-1,9.1c-3.3,4.5-6.2,9.4-9.2,14.1c-0.9,1.3-1.6,2.8-2.7,3.9c-2.7,2.8-2.6,5.1,0.5,7.6
			c3.1,2.4,3.3,5.3,0.9,8.3c-2.7,3.5-4,8-9.5,9.2c-3.3,0.7-2.5,4.1-0.5,6.2c2.5,2.6,2.7,5,0.8,8.1c-3.1,5.2-6,10.5-8.7,15.9
			c-1.9,3.8-3.1,8-5,11.8c-1.1,2.3-3.2,4.2-4.3,6.4c-1.7,3.2-3,6.7-4.3,10.1c-1,2.6-1.9,5.2-2.9,7.9c-0.5,1.5-1.7,3.2-1.4,4.5
			c1,4.4-0.5,7.7-3.5,10.7c-0.4,0.4-0.9,1.2-0.8,1.7c1.5,6.3-3.2,10.3-5.6,15.1c-2.4,4.8-4.3,9.8-6.4,14.7c-1.6,3.6-3.7,6.3-7.9,7.5
			c-1.8,0.5-3.2,2.8-4.3,4.6c-0.2,0.3,1.9,2.3,3.1,3.2c3,2.2,2.4,4.5,0.4,6.9c-4.1,4.7-6.6,9.9-7,16.4c-0.1,1.8-2.9,3.4-4.6,5
			c-1.2,1.1-3,1.7-3.6,3c-0.4,0.8,0.6,3.2,1.4,3.5c1.6,0.5,3.6,0.2,5.3-0.1c0.8-0.1,1.5-1.1,2.3-1.7c1.9-1.4,3.8-3,6.2-0.5
			c2.6,2.8,0.7,4.6-1,6.5c-1.5,1.6-3.5,2.9-4.7,4.7c-1.7,2.5-2.7,5.5-4.2,8.1c-1.2,2-2.9,3.6-4.1,5.5c-1.5,2.3-2.8,4.8-4.2,7.2
			c2.4,0.8,4.8,2.1,7.3,2.3c5.8,0.4,12,2.3,16.9-3.2c0.7-0.8,2.7-0.5,4.1-0.6c5.9-0.2,12.1,0.9,17.6-0.6c16.8-4.5,33.7-1.9,50.5-2.5
			c5-0.2,10.3-1,15,0.2c8,2.1,17,1.4,23.5,7.7c1.4,1.4,2.1,3.5,3.1,5.3c-2.2,1-4.5,2.9-6.6,2.7c-3.5-0.4-6.9-2.2-10.4-3.3
			c-1.3-0.4-3.4-1-3.9-0.5c-3.4,4-7.3,1.3-11.1,1.4c-3.7,0.1-7.3,1-10.9,1.6c-0.8,0.1-1.4,0.8-2.2,0.9c-8.7,1.3-17.4,2.5-26.1,3.8
			c-2.6,0.4-5.5,0.7-7.6,2.1c-6.5,4.4-13.8,1.8-20.6,3c-4.4,0.7-8.5,0.9-12.7,3c-3.2,1.7-7.8,0.4-11.6,1.4
			c-6.9,1.7-13.7,3.9-20.4,6.2c-4.4,1.5-8.6,3.5-12.9,5.5c-0.9,0.4-2.2,1.4-2.3,2.1c-0.3,6.2-5.5,7.4-9.5,10
			c-2.5,1.7-4.5,4.2-6.7,6.4c-3,2.9-6.1,5.7-9,8.7c-4,4.1-9.8,6.2-11.4,13c-0.8,3.2-4.9,5.7-7.5,8.5c-1.7,1.8-3.5,3.6-5.1,5.5
			c-0.8,1-1.3,2.4-1.9,3.6c-1.4,2.8-2.6,5.6-4.2,8.3c-3.8,6.1-4.4,13-6.1,19.8c-1.3,5-6.8,9.4-11.1,13.2c-4.4,3.9-4.7,4,0.2,7.8
			c3.6,2.8,4,6,0.6,8.6c-1.1,0.9-3.4,1.3-4.6,0.8c-3.6-1.8-4-0.1-4.3,2.9c-0.2,1.8-1.2,3.6-2.2,5.2c-1.7,3-6,4.3-5.2,9
			c0.1,0.8-2.3,2-3.6,3c-2.2,1.6-5.5,2.6-6.4,4.7c-2.3,5.3-6.4,9.9-6.1,16.4c0.1,2.1-1.8,4.7-3.5,6.4c-2,2.1-4.6,3.8-7.2,5.1
			c-4.3,2.2-5.9,5.3-6.6,10.1c-0.7,4.3-3.3,8.4-5.7,12.2c-2.7,4.5-6,8.4-7,14.2c-1.2,6.3-4.8,12.1-7.4,18.2c-1.4,3.4-4,3.1-6.7,1.9
			c-0.8-2.1-1.4-4.2-2.4-6.1c-0.3-0.7-1.7-0.9-2.5-1.3c-0.4,1-1.3,2.6-1,2.8C839.9,771.1,842,772.5,844,773.9z M651,804.4
			c-0.3-0.4-0.6-0.8-0.9-1.3c-1,1.6-2.1,3.2-3.1,4.8c-1.8,2.9-3,6.8-5.7,8.4c-3.9,2.4-6,5.3-6.3,9.4c-0.4,4.7-2.8,7.7-6.1,10.8
			c-4.4,4.1-10.3,7.3-10.1,14.7c0,1-1.9,1.9-2.8,3c-1.8,2-4.7,3.9-4.9,6.1c-0.5,4.4-2.8,5.7-6.5,6.8c-2.4,0.7-6.7,1.7-4.3,6.1
			c2.5,4.5,2,8.7-1.1,12.4c-5,6-7.6,13.9-14.5,18.5c-1.9,1.2-2.8,3.8-4.4,5.6c-1.2,1.4-2.5,3-4.1,3.5c-3.6,1.1-4.7,2.9-4.1,6.7
			c0.3,1.9-1.6,4.2-2.7,6.2c-0.3,0.6-1.8,1.1-1.8,1.3c1.6,5.1-1.3,7.7-5.1,10c-0.3,0.2-0.2,0.9-0.5,1.3c-3.2,4.6-5.5,10.6-9.8,13.6
			c-7.4,5.1-7.5,14.2-13.3,19.8c-0.4,0.4-0.1,1.3-0.4,1.8c-1.4,2.7-2.7,5.5-4.2,8.1c-1.2,2.2-4.2,4.8-3.7,6.3
			c2.2,6.5-2.4,10.7-4.1,15.8c-1.8,5.7-6.9,9.9-6.6,16.5c0.1,2.7-0.9,5.7-2.2,8.1c-3.3,6.2-6.8,12.3-8.7,19.3
			c-2.7,9.9-5.4,19.5-3.6,29.8c0.6,3.4,6.6,9.3,8.8,8.5c4.7-1.8,10.1-2.8,13.9-5.9c6.1-4.9,11.7-10.4,18.9-13.9c5.6-2.7,11-6,16.5-9
			c1.5-0.8,3-1.7,4.2-2.8c5-5,9.5-10.5,14.9-15c7.3-6.2,14.3-12.6,20.5-19.9c2.7-3.1,6.1-5.6,8.8-8.7c4.7-5.4,5.1-5.5,10.4-0.6
			c3.4,3.2,5.6,3.2,8.2-0.5c1.3-1.8,1.6-4.3,2.3-6.5c0.5-1.5,0.3-3.4,1.2-4.4c2.7-3,5.8-5.6,8.7-8.4c4.2-3.9,6.4-3.7,9.2,1.4
			c2.1,3.9,4.9,3.4,8.3,2.2c-4.5-7.1-4.1-8.3,2.5-12.2c1.4-0.8,2.6-1.7,3.9-2.7c6.3-4.6,6.3-4.6,1-10.5c1.4-0.8,2.6-1.7,4-2.1
			c4.2-1.2,5.8-6,3.5-9.7c-1-1.6-1-3.8-1.4-5.7c2-0.1,4.1-0.7,5.8-0.1c2.8,1,4.3,1.1,5.3-2.3c2.2-7.3,4.1-7.8,10.8-4
			c1.1,0.6,4.3-0.2,4.4-0.7c0.6-3.3,1.2-6.9,0.7-10.2c-0.5-3.6,0.5-6,3.3-7.7c3.4-2.1,3.9-5,4.5-8.7c0.7-4.2,0.2-6.9-5.2-8.9
			c2.5-1,4.2-2.2,4.7-1.8c4.3,3.1,8.5-1.1,12.8,0c0.7,0.2,2-0.8,2.7-1.6c2.5-3.1,4.8-6.3,7.6-10c-4.3-1.3-4.3-10-12.4-7.5
			c0.8-1.6,1.3-2.8,2-4c0.7-1.2,1.5-2.4,2.3-3.6c0.9,1.1,1.6,2.7,2.7,3.2c2.4,1.1,5,2.2,7.6,2.3c1.1,0.1,2.8-2.1,3.3-3.5
			c1.1-3.3,2.7-5.3,6.4-5c4.2,0.3,6.7-2.1,7.8-5.6c1.3-4-1.9-5.9-4.5-8.1c-2.6-2.2-5.1-4.4-7.2-7.1c-5.4-6.9-9.6-15-15.8-21
			c-7.4-7-11.8-15.7-17.7-23.5c-1-1.3-2.4-2.2-3.6-3.2c-1.1,1.5-2.6,2.8-3.4,4.4c-1.5,3.3-2.3,6.9-3.9,10.1c-0.6,1.2-2.8,2.4-4,2.3
			c-1.1-0.2-2.9-2.3-2.8-3.5c0.3-4.1-1-7.4-3.7-10.3c-0.9-1-1.7-2.4-2.1-3.7c-1.1-3.2,0.3-4.6,3.6-4.2c1.1,0.2,2.3-0.1,3.5-0.2
			c-0.2-1.2-0.3-2.4-0.6-3.5c-1-2.8-2.9-5.6-2.9-8.4c0-6-5.1-11-11-10.2c-1.7,0.2-3.5-0.8-5.3-1.3c-1.1-0.3-2.2-0.7-3.3-1.1
			c-0.3,1-1,2-0.8,3c0.4,2.8-0.7,4.3-3.3,5.5c-2.7,1.2-3.7,3.6-1.8,6.3c2.9,4.2,0.1,7.2-2.5,9.5C656.4,804.7,653.3,804.1,651,804.4z
			 M891,656.4c-3.4-12.9,3.1-19.6,10.8-26.8c3.9-3.7,6.4-9.2,11.3-12.3c2.5-1.6,2.9-3.6,0.5-5.3c-4.3-3-2.6-6.3-0.9-9.6
			c1.5-2.9,3.9-5.4,5-8.4c0.6-1.8-0.7-6-1.2-6c-4.3,0-8.9-0.1-12.8,1.5c-4.3,1.7-8,7.3-12,7.3c-8.3-0.1-12.4,7.4-20,8.5
			c-5.2,0.7-10,5.6-14.7,9c-4.2,3-7.6,7.9-12.3,9.5c-7.2,2.5-10.7,11.4-19.4,10.7c-0.2,0-0.4,0.4-0.7,0.6c-3.4,2.9-6.9,5.7-10.1,8.7
			c-5.6,5.2-11.2,10.6-16.7,16c-2.1,2.1-3.7,3.9-6.8,1.8c-0.9-0.6-2.6-0.1-5-0.1c2.3,2.8,3.7,4.6,4.6,5.8c-3,2.8-6.5,4.7-8.1,7.6
			c-4.4,7.9-4.1,8.1-11.3,3.6c-0.9,3.7-1,7.8-2.8,11c-1.9,3.4-5.3,6-8.3,9.3c-3.5-2-5.9-0.3-7.7,3.1c-0.6,1.2-2.1,2-2.8,3.1
			c-1.1,1.7-2,3.5-2.9,5.4c-1.1,2.5-1.9,5.2-3.1,7.6c-2,3.8-4.3,7.4-6.6,11.1c-0.6,1-1.4,2-2.3,2.8c-4.7,4.2-7.9,9.2-9.1,15.4
			c-0.3,1.5,0.3,3.7,1.2,4.9c2.7,3.5,5.5,7,8.7,10.1c7.9,7.4,14.8,15.3,18.5,25.8c1.6,4.6,4.2,9,6.8,13.3c3.1,5.2,6.4,10.4,10,15.3
			c2.6,3.5,5.7,6.7,8.9,9.6c0.8,0.7,3.8,0.3,4.7-0.6c4.1-4,3.7-6-0.6-10.3c-1.1-1-1.5-2.8-2.2-4.2c1.5-0.7,3-1.4,4.5-2.1
			c0.1-0.1,0.3,0,0.5,0c3.2-0.7,6.5-1.4,9.7-2.2c4-1,5.1-3.7,4.6-7.6c-0.1-0.6,1.3-1.3,1.9-2c1-1.2,1.9-2.5,2.9-3.7
			c1.3-1.5,2.5-3.3,4-4.5c3.9-3.1,10.9-3.7,7.7-11.9c-1-2.5,2.1-3.9,4.7-2.7c1.3,0.6,3,0.6,4.5,0.9c-0.1-1.8-0.1-3.6-0.5-5.3
			c-0.4-1.8-1.1-3.5-1.5-4.9c2.5-0.9,3.9-1.4,5.4-1.9c-1.2-0.9-2.7-1.6-3.7-2.7c-1.7-1.9-4.7-4.6-4.3-6.1c0.7-2.2,3.8-3.7,6-5.3
			c0.8-0.5,2.5,0.2,3.2-0.4c2.6-2.1,5.9-4,7.1-6.8c2.8-6.8,5.5-13.4,12.8-16.5c3.4-1.4,3.8-2.7,0.7-5.3c-1-0.8-1.1-3.9-0.4-5.2
			c0.7-1.1,3.1-1.7,4.8-1.7c1.7,0,3.5,0.9,5.3,1.4c-0.6-2-1-4.1-1.9-6c-0.9-1.8-2.7-3.3-3.3-5.2c-0.9-2.7-1.5-5.7-1.6-8.6
			c0-1.1,1.6-2.7,2.8-3.1c0.8-0.3,2.6,0.9,3.3,1.9c3.4,4.4,7,4.4,9.6-0.7c2.1-4,4-8.5,4.3-12.9c0.5-6.9,3.7-11.5,8.7-15.5
			c1-0.8,1.6-2,2.7-3.4c-4.6-1.3-7.5-1.2-9.5,2.9c-1.2,2.4-2.8,4.9-7.2,2.2c1.1-1.9,3.2-2.5,4.6-3.9c1.8-1.7,3.5-3.8,4.3-6.1
			c1.4-4,4.6-5.5,8.5-3.3C887.7,654,888.5,654.6,891,656.4z M309.6,600.4c-2.2,1.7-3.6,2.7-5,3.9c-2.8,2.5-5.5,5.1-8.3,7.7
			c-3.1,2.9-6.3,5.8-9.2,8.9c-4.7,5.1-7.7,12-15.9,13.2c-2.2,0.3-4,3.1-5.9,4.8c-2.1,2-4.2,4-6.2,6.1c-1.5,1.6-4,3.1-4.2,4.8
			c-0.7,5.5-4.5,8.2-8.6,10c-9,4.1-16.4,10.1-22.7,17.5c-1.1,1.3-1.1,3.4-1.7,5.1c1.6-0.5,3.6-0.6,4.8-1.5c6-4.7,11.7-9.7,17.6-14.5
			c0.8-0.7,2.1-0.8,3-1.2c2-1,4-1.9,5.8-3c12.6-7.7,18.7-22.2,31.4-29.9c0.9-0.5,1.4-1.7,2.1-2.5c6.1-6.2,12.4-12.2,18.3-18.7
			C307.4,608.6,310.4,605.8,309.6,600.4z M362.8,314.8c-0.1,0-0.1,0-0.2,0c0,1-0.5,2.2-0.1,2.8c1.6,2.1,3.1,4.7,5.3,5.7
			c1.3,0.6,4.3-1,5.6-2.4c2.4-2.6,1-4.7-2-6.2c-1-0.5-1.6-2.3-2.1-3.6c-2.4-6.7-6.7-11.3-13.6-13.5c-1.2-0.4-2.4-1.5-3.2-2.5
			c-3.3-3.9-6.5-8-9.9-11.9c-0.6-0.7-1.8-1-2.8-1.4c-0.5,1.1-1.5,2.2-1.4,3.2c0.1,1.7,0.6,3.6,1.6,4.8c3.9,4.9,4,4.8-1.4,7.6
			c-1,0.5-1.7,1.7-2.5,2.6c1.1,0.7,2.1,1.5,3.3,2.1c3.7,1.9,7.4,3.9,11.3,5.4c1.4,0.6,3.5,0.6,4.8,0c3.8-1.8,6.7-0.6,7.1,3.5
			C362.9,312.3,362.8,313.5,362.8,314.8z M1050.6,291.6c-1.4-0.5-2.8-1.4-3.2-1c-2.5,2-5.8,3.8-6.9,6.5c-0.9,2.3,0.1,6.1,1.5,8.5
			c1.7,2.9,4.8,4.9,7.1,7.6c2.5,2.9,4.4,1.5,6.3-0.4c2.1-2.1,2.1-4.1-0.5-5.9c-1.3-0.9-2.4-2-3.6-3.1
			C1046.3,299.1,1046.2,297.8,1050.6,291.6z M999.8,270.8c0.1-3.2-5.5-10.2-7.9-9.1c-3.1,1.4-7.8,5.4-7.4,7c1,3.5,4.3,7.4,7.7,9
			C995.4,279.4,999.7,274.7,999.8,270.8z M816.5,909.2c0.1,0.5,0.2,0.9,0.3,1.4c2.2-0.9,4.6-1.5,6.5-2.7c1.4-0.9,3.4-3.3,3-4
			c-0.8-1.7-2.9-2.8-4.4-4.1c-1.2-1.1-3.3-2.1-3.5-3.4c-0.5-4-2.4-6-6.4-6.2c-1.2-0.1-2.3-1.1-3.5-1.3c-1.7-0.4-4.2-1.3-5.2-0.5
			c-1.4,1.1-1.9,3.5-2.7,5.4c2,0.4,4.1,1.3,6.1,1.1c3.7-0.3,12,4.3,12.3,7.8C819.2,904.8,817.4,907.1,816.5,909.2z M1007.1,531.3
			c6.2,2.4,8.5-2.1,11.6-5c0.8-0.7,1.4-2.4,1.1-3.2c-0.3-0.9-2.1-1.9-3-1.6c-4.6,1.2-9.2,2.5-13.6,4.2c-2.4,0.9-4.6,2.4-6.5,4.1
			c-0.7,0.6-0.4,2.6,0,3.8c0.2,0.5,1.9,0.9,2.7,0.6C1002.2,533.3,1004.8,532.2,1007.1,531.3z M1051.5,273.8c1.4-4.8-1.6-8-5-10.7
			c-1.3-1-3.9-1.1-5.6-0.6c-0.8,0.2-1.2,2.8-1.3,4.3c-0.5,5.3,4,7.9,6.6,11.6c0.8,1.1,2.5,1.5,3.7,2.2c0.5-1.2,1.2-2.4,1.6-3.7
			C1051.7,275.9,1051.5,274.9,1051.5,273.8z M845.7,924.4c0.4-0.3,0.8-0.6,1.2-1c-2.4-1.5-4.6-3.7-7.2-4.4c-2.5-0.6-5.4,0.3-8.1,0.8
			c-1.2,0.2-2.3,1.1-3.4,1.7c0.6,1,0.9,2.2,1.7,3c2.7,2.6,5.5,5.1,8.3,7.6c0.8,0.7,1.8,1.8,2.4,1.6c0.8-0.2,1.5-1.4,1.9-2.4
			C843.6,929.1,844.6,926.7,845.7,924.4z M916.1,558.2c3.2,5.4,3.8,5.5,9.2,1.9c0.7-0.5,1.8-0.5,2.7-0.8c4.2-1.7,8.4-3.2,12.4-5.3
			c1-0.5,1.1-2.8,1.6-4.3c-1.5-0.2-3.1-0.9-4.3-0.4C930.5,552.1,923.5,555.1,916.1,558.2z M702.8,693.7c-0.7,0.3-2.5,1-4.1,2
			c-0.2,0.1,0.5,2.7,0.9,2.7c2,0.2,4.1,0,6.1-0.3c1.2-0.2,2.6-1.6,3.4-1.2c5.9,2.3,9-2.8,13.1-4.9c0.8-0.4,1-1.8,1.5-2.7
			c-1.1-0.5-2.1-1.4-3.2-1.4c-2.5,0-5.1,0.2-7.5,0.6c-1.1,0.2-2.7,1-2.8,1.8C709.5,694.2,706.9,694.2,702.8,693.7z M1001.2,257.5
			c3.5,0,6.9-3.6,6.9-7.4c0-3.1-4-7.2-7-7.1c-2.4,0.1-6.5,5.8-6.2,9C995.2,255.6,997.5,257.6,1001.2,257.5z M1023.3,254.6
			C1023.3,254.6,1023.3,254.6,1023.3,254.6c0.1-1.4,0.1-2.9,0-4.3c-0.2-3.5-3.2-4.9-5.1-3.4c-2.2,1.8-4.6,5.8-4,8.1
			c0.8,2.9,4.4,5.1,6.8,7.6c0.7-2.5,1.5-5.1,2.2-7.6C1023.3,255,1023.3,254.8,1023.3,254.6z M958.5,523.3c0.4,0.6,1.3,1.9,2.1,3.1
			c0.8-1.3,2.3-2.5,2.3-3.8c0.1-4.9,1.6-8.7,5.5-12c1.9-1.6,2.6-4.7,3.4-7.2c0.2-0.6-1.3-2-2.3-2.5c-0.4-0.2-1.9,0.9-2.3,1.7
			c-2.7,5.1-5.4,10.2-7.9,15.4C958.9,519.2,959,520.8,958.5,523.3z M1048.3,336.8c1.3,1.7,2.4,4.3,4.1,5c2.6,0.9,7.8-4.2,7.8-7
			c0-3.8-2.9-3.5-5.4-3.8C1051.1,330.7,1048.9,332.1,1048.3,336.8z M1075.5,278.5c3.7-2.9,7.1-5.4,10.2-8.1c0.5-0.4,0.5-2,0.1-2.5
			c-0.7-0.9-1.9-1.8-2.9-1.9C1078,265.6,1073.3,272.7,1075.5,278.5z M318.9,263.6c-3.5-0.2-4.4,1.7-4.4,4.7c0,3.4,1.7,5.2,4.9,5
			c2.6-0.1,6.1-0.4,5.9-4C325.1,266,322.5,263.9,318.9,263.6z M1040.4,396.8c-2.6-2.2-4.7-4.9-5.6-4.5c-2.6,1-4.6,3.3-6.9,5
			c1.6,1.8,3.6,5.2,4.8,4.9C1035.1,401.7,1037.2,399.3,1040.4,396.8z M479.4,1012.8c2.8-3.3,5.2-5.6,7-8.4c0.8-1.2,0.4-3.2,0.5-4.9
			c-1.7,0.3-4.4-0.1-5,0.9c-1.9,3-3.1,6.4-4.2,9.8C477.5,1010.9,479,1012.2,479.4,1012.8z M796.6,627.5c-0.3-0.5-0.7-1-1-1.5
			c-4.2,2-8.5,3.8-12.4,6.2c-1.1,0.6-1.2,2.8-1.7,4.3c1.6,0.1,3.7,0.8,4.7,0.1C789.8,633.8,793.1,630.6,796.6,627.5z M985.1,462.5
			c-2.2,1.7-4,3.1-5.7,4.4c1.4,1.6,3.6,4.8,4.1,4.5c2.6-1.2,4.8-3.3,7.2-5.1C989.1,465.2,987.5,464.1,985.1,462.5z M1070.2,301
			c3.5,1,7,2.4,9.5-1.4c0.5-0.8-0.7-3.6-1.8-4.3C1075.5,293.6,1071.9,296.4,1070.2,301z M1023.4,416c1.9-2.2,4-3.5,4-4.9
			c0-1.6-1.9-3.1-3-4.7c-1.8,1.8-3.6,3.5-5.5,5.3C1020.1,412.8,1021.2,413.9,1023.4,416z M325.6,584.1c-0.7-0.3-1.3-0.7-2-1
			c-1.9,1.7-4,3.3-5.6,5.3c-0.3,0.3,1.3,2.8,2.4,3.4c1.2,0.6,4.1,0.4,4.3,0C325.3,589.3,325.3,586.7,325.6,584.1z M1007.2,504.2
			c-2.6,3-5.2,5.1-6.5,7.7c-1.1,2.3,0.4,3.9,3.3,3.3C1007.8,514.4,1009,511.4,1007.2,504.2z M800.7,623.2c4.6-1.8,8-3.1,11.6-4.4
			C807.4,612.4,805.1,613.1,800.7,623.2z M998.9,464.8c1.7,2.2,2.6,3.2,3.4,4.3c2-1.7,4-3.4,5.8-5.3c0.2-0.2-2-3.2-2.3-3
			C1003.6,461.7,1001.7,463.1,998.9,464.8z M781.3,854.5c2.3,1.9,4,3.9,4.6,3.7c1.6-0.8,3.3-2.4,3.7-4c0.2-0.9-2-3.3-3.2-3.4
			C785.1,850.6,783.7,852.6,781.3,854.5z M1011.1,439.5c-2.5,0.2-4.4-0.2-5.6,0.6c-1.2,0.8-1.8,2.7-2.1,4.2c-0.2,0.7,1,1.7,1.5,2.6
			c1.2-0.8,2.6-1.4,3.5-2.5C1009.4,443.3,1009.9,441.8,1011.1,439.5z M1072.1,306.2c-1.7,1.9-3.5,3.3-3.3,3.9c0.7,1.7,2.3,3,3.5,4.5
			c1.1-1.3,3-2.5,3.2-3.9C1075.6,309.6,1073.6,308.2,1072.1,306.2z M1035.6,380.9c-0.3-0.4-0.6-0.9-0.9-1.3c-2.8,0-5.6,0-8.5,0
			c-0.2,0.5-0.4,1-0.7,1.5c1.8,1,3.6,2.8,5.3,2.8C1032.5,383.9,1034.1,382,1035.6,380.9z M642,171.9c2.9-2,5-3.4,7.1-4.8
			c-1-0.7-2-2-3-2.1C642.9,164.9,641.2,166.6,642,171.9z M718.1,678.7c0.2,0.5,0.4,1,0.6,1.5c1.6-0.1,3.4,0.1,4.8-0.5
			c1.2-0.6,2.1-2.2,2.9-3.4c0.2-0.3-0.8-1.8-1.1-1.7c-1.3,0.2-2.7,0.6-3.8,1.3C720.3,676.5,719.2,677.7,718.1,678.7z M478,1001.3
			c-2.5-1.7-4.1-3.5-4.7-3.2c-1.5,0.8-2.6,2.4-3.7,3.8c-0.1,0.2,1.5,2.3,2,2.1C473.5,1003.7,475.1,1002.7,478,1001.3z M1043.4,236.6
			c0.9-0.6,1.7-1.1,2.6-1.7c-1.3-1.9-2.6-3.8-4.1-5.6c-0.1-0.1-1.5,1-2.4,1.5C1040.9,232.7,1042.2,234.7,1043.4,236.6z M653.1,1009
			c-2.5-1.1-4-2.2-4.7-1.9c-1.5,0.8-2.6,2.3-3.8,3.5c1,0.7,2.2,2.1,3,1.8C649.2,1012,650.5,1010.7,653.1,1009z M1064.8,257.7
			c-1.6,2.1-3,3.3-2.9,4.3c0.1,1.1,1.6,2,2.5,3c1-0.9,2.6-1.8,2.9-2.9C1067.4,261.2,1066.1,260,1064.8,257.7z M804,883.3
			c-1.5-2-2.5-3.4-3.5-4.7c-0.9,1.1-2.5,2.3-2.4,3.3c0.1,1.4,1.6,2.6,2.6,3.9C801.6,885.1,802.5,884.4,804,883.3z M637,806.1
			c0.4-0.7,0.7-1.5,1.1-2.2c-1.1-0.4-2.7-1.5-3.3-1.1c-1.5,1.1-2.7,2.7-3.7,4.3c-0.2,0.3,1.2,1.9,1.2,1.9
			C633.9,808.2,635.5,807.1,637,806.1z M961,538.2c-0.1,0.6-0.1,1.2-0.2,1.8c2.4,0.2,4.7,0.4,7.1,0.4c0.2,0,0.4-1.5,0.7-2.3
			c-2.3-0.2-4.7-0.4-7-0.6C961.3,537.5,961.1,538,961,538.2z M510.4,318.5c-0.4,0.8-0.7,1.6-1.1,2.3c1.5,0.9,2.9,1.9,4.4,2.8
			c0.7-1.1,1.3-2.3,2-3.4C513.9,319.7,512.1,319.1,510.4,318.5z M509.4,624.4c-1.2,1.6-2.4,2.5-2.4,3.4c0,0.9,1.2,1.8,1.9,2.6
			c0.9-0.9,2.2-1.6,2.6-2.6C511.7,627.2,510.5,626,509.4,624.4z M926.8,563.4c-1.3,2.3-2.3,3.5-2.6,4.7c-0.2,0.5,0.8,1.4,1.2,2.1
			c1.1-0.9,2.5-1.7,3.3-2.8C929,567,927.9,565.6,926.8,563.4z"/>
		<path d="M486.3,318.4c-1.3-0.2-3.3,0.1-4.5-0.8c-3-2.2-5.3-1.7-7.5,0.8c-2.3,2.6,0.3,3.8,1.5,5.5c0.6,1,1,2.8,0.5,3.7
			c-0.6,1-2.5,2.1-3.4,1.8c-5.1-1.5-8.1,2.8-12.1,4.2c-1.7,0.6-3.5,0.8-5.2,1.2c0.3-1.9,0-4,0.9-5.5c2.6-4.3,5.3-8.7,8.7-12.3
			c2.9-3.1,6.9-5.3,10.5-7.8c1.5-1.1,3.1-2.3,4.9-2.7c1.9-0.5,4.1-0.2,6.1-0.2c-0.4,1.6-1,3.1-1,4.7
			C485.4,312.9,485.9,315,486.3,318.4z"/>
		<path d="M615.5,153.7c-0.6-0.1-1.3-0.5-1.9-0.3c-1.7,0.5-4.1,0.6-4.9,1.8c-0.8,1.1,0.2,3.4,0.4,5.1c0.2,1.3,0.4,2.6,0.6,3.9
			c-1.3,0.2-3.2,1-4,0.4c-3.8-2.7-7.2-2.5-11,0c-1.1,0.7-2.8,0.8-4.2,0.6c-1.2-0.2-2.4-1-3.5-1.6c0.7-1,1.2-2,2-2.9
			c0.8-0.8,2.2-1.1,2.6-2c5.1-9.2,14.4-11.4,23.3-13.9c2.1-0.6,4.7-0.1,6.9,0.4c0.5,0.1,1,2.9,0.5,3.7c-1.7,2.2-3.9,3.9-5.9,5.9
			C616.1,154.3,615.8,154,615.5,153.7z"/>
		<path d="M713.6,110.5c-0.9,0.6-2.1,1.7-3.3,1.9c-7,0.8-10.7,4.9-10.6,11.5c0,1.7-0.2,3.5-0.9,5.1c-1.5,3.4-5.4,3.7-7.7,0.8
			c-0.4-0.5-0.6-1.1-1-1.6c-5.1-8.6-4.7-8,3.4-13.7c4.5-3.2,8.7-6.5,14.2-7.8C710.4,106.1,712.8,106.2,713.6,110.5z"/>
		<path d="M522.9,234.9c-3.4-0.9-5.4-1.5-7.6-2.1c3.8-2.9,6.9-5.4,10.2-7.6c2-1.3,6.1,2.4,6.4,5.9c0.3,2.8,0,5.7-0.1,8.6
			c0,0.7-0.3,1.8-0.9,2.1c-4.4,2.4-8.8,4.9-13.5,6.9c-1.3,0.6-3.1-0.3-4.7-0.5c0.7-1.5,1.2-3.1,2.2-4.4
			C517.2,241.1,519.8,238.4,522.9,234.9z"/>
		<path d="M701.6,83.4c1.8,1.2,3.3,1.7,3.9,2.7c0.3,0.5-0.9,2.2-1.8,3c-4.5,3.9-9.1,7.9-13.9,11.5c-1.5,1.1-3.9,1.1-5.9,1.5
			c-0.1-2.2-1.2-5.7-0.1-6.5C689.5,91.3,695.6,87.5,701.6,83.4z"/>
		<path d="M758.9,90.2c0.1,3.7-3.4,7.4-6.6,7.5c-2.8,0-10.3-6.5-9.1-7.7c2.2-2.1,5.7-3.5,8.8-4.1C755.3,85.3,758.2,86.8,758.9,90.2z
			"/>
		<path d="M744,67.5c1.7,1.3,4.2,2.6,4,3.3c-0.5,2.1-1.5,4.7-3.2,5.7c-3.1,1.9-6.8,3-10.4,4.1c-1,0.3-3-0.4-3.6-1.3
			c-0.6-0.9-0.4-3.3,0.3-3.8C735.2,72.7,739.4,70.3,744,67.5z"/>
		<path d="M660.1,109.4c1.9,1.4,3.9,3,5.9,4.6c-1.5,1.7-2.9,3.6-4.5,5.2c-1.4,1.4-2.9,2.8-4.6,3.9c-1.1,0.7-2.5,1.1-3.8,1
			c-0.5,0-1.5-2-1.2-2.7c1.6-3.7,3.5-7.3,5.4-10.8C657.7,110.1,658.8,110,660.1,109.4z"/>
		<path d="M637.8,133.2c-0.5-1.2-1.4-2.5-1.3-3.6c0.3-2.2,0.7-4.8,2.1-6.4c1.5-1.7,3.9-3,6.1-3.4c1.1-0.2,3.4,1.6,3.8,2.9
			c0.4,1.2-0.6,3.4-1.7,4.4c-2.2,2-4.9,3.4-7.4,5C639,132.5,638.4,132.8,637.8,133.2z"/>
		<path d="M451.3,354.6c-1.5-1.2-2.9-2.5-4.4-3.7c-1.2-1-3.2-1.8-3.3-2.9c-0.2-1.8,0.2-4.3,1.3-5.5c0.7-0.7,3.5-0.1,5,0.7
			c1.7,0.9,3.3,2.5,4.4,4.2c1,1.5,1.4,3.5,2.1,5.2c-1.8,0.6-3.5,1.2-5.3,1.8C451.2,354.5,451.3,354.6,451.3,354.6z"/>
		<path d="M726,107.8c-1.1-0.9-3.1-2-3-2.7c0.2-1.6,1.3-3.9,2.6-4.4c3.7-1.2,7.6-1.7,11.5-2.2c0.8-0.1,2.2,0.9,2.4,1.7
			c0.2,0.8-0.5,2.4-1.2,2.7C734.4,104.7,730.5,106.1,726,107.8z"/>
		<path d="M574.7,172.3c4.8,0.2,9.3,4.8,8.5,8.1c-0.3,1.3-3.2,3.3-3.4,3.2c-2.8-2.4-5.5-5.1-7.9-8
			C571.8,175.3,574.1,173,574.7,172.3z"/>
		<path d="M535.7,230.3c1.2-1.9,2.1-4.1,3.8-5.5c0.4-0.4,3.5,1.1,4.3,2.4c1.5,2.4,1.7,5.1-1.4,6.8c-1.4,0.8-2.8,1.7-4.3,2.5
			C537.4,234.7,536.7,232.9,535.7,230.3z"/>
		<path d="M971.4,1072.6c3.5-0.1,9.1,5.6,8.5,8.1c-0.2,1-2.5,2.4-2.7,2.3c-2.6-2.2-5.1-4.6-7.2-7.2
			C969.7,1075.4,971,1073.5,971.4,1072.6z"/>
		<path d="M718.3,87.9c-2.1-2.6-3.7-4.1-4.5-5.9c-0.2-0.5,2.6-3.2,3.5-2.9c2,0.5,3.6,2.3,5.3,3.6C721.5,84.1,720.4,85.4,718.3,87.9z
			"/>
		<path d="M958.9,1067.4c-1.5-2.3-3.5-4.2-3.1-4.8c1-1.6,2.8-3.4,4.5-3.7c1.1-0.1,2.6,2.4,3.9,3.7
			C962.7,1064,961.3,1065.3,958.9,1067.4z"/>
		<path d="M710.8,87.6c1.5,2.2,3,3.6,2.8,4.2c-1,2-2.5,3.7-3.9,5.6c-1-0.9-3.1-2.2-2.9-2.7C707.5,92.5,709,90.6,710.8,87.6z"/>
		<path d="M732.6,662.4c2.5-1.5,4.3-2.7,6.2-3.6c0.2-0.1,2,2.4,1.8,2.7c-1.4,1.9-3.2,3.5-4.8,5.2
			C734.9,665.5,734.1,664.4,732.6,662.4z"/>
		<path d="M742.7,396.4c-1.6-2.2-3.2-3.7-2.9-4.1c1.2-2,2.9-3.7,4.4-5.5c0.9,0.9,2.8,2.1,2.7,2.5C746,391.5,744.6,393.4,742.7,396.4
			z"/>
		<path d="M568.6,847.4c-0.8-4.8,1.5-8.7,4.5-9c0.8-0.1,1.9,0.3,2.5,0.9c0.3,0.3,0.3,1.7-0.1,2.1
			C573.4,843.3,571.2,845.1,568.6,847.4z"/>
		<path d="M503.6,937.1c0.7-1.8,1.1-4,2.4-5.3c0.7-0.7,3,0.2,4.5,0.4c-0.6,1.2-0.9,2.5-1.7,3.4c-0.9,1-2.2,1.6-3.4,2.3
			C504.8,937.7,504.2,937.4,503.6,937.1z"/>
		<path d="M631.3,134c-1.6,1-3.1,2.2-4.9,2.8c-0.8,0.3-2-0.9-3-1.4c1.6-1.3,3-2.9,4.8-3.9c0.6-0.3,1.9,0.6,3,1
			C631.2,133,631.3,133.5,631.3,134z"/>
		<path d="M491.8,295.2c-2.7,1.6-4.1,3.1-5.5,3.1c-1.2-0.1-2.4-1.8-3.6-2.9c1.4-0.7,2.7-1.7,4.2-2
			C488,293.3,489.2,294.2,491.8,295.2z"/>
		<path d="M451.2,1044.8c-1.8,1.2-3.1,2.5-3.5,2.3c-1.4-0.9-2.8-2.2-3.8-3.6c-0.2-0.3,1.1-1.7,1.7-2.6
			C447.2,1042,448.8,1043.1,451.2,1044.8z"/>
		<path d="M632.8,144.7c-1.3-1.8-2.8-3-2.6-3.7c0.3-1.2,1.7-2.1,2.7-3.2c0.9,0.9,2.5,1.8,2.5,2.6
			C635.4,141.6,634.1,142.7,632.8,144.7z"/>
		<path d="M552,872.3c-1.1-1.9-2.3-3.1-2.1-4c0.2-1,1.6-1.8,2.5-2.7c0.8,0.9,2.3,1.8,2.3,2.8C554.6,869.4,553.3,870.4,552,872.3z"/>
		<path d="M700.6,923.1c-2.5,1.6-4,3.3-5.6,3.5c-3.1,0.3-5.8-2.1-5.1-4.8c0.6-2.3,3.6-4,5.6-5.9C697,918,698.4,920,700.6,923.1z"/>
		<path d="M738.8,867.7c-2.7,2-4.3,3.6-6.2,4.3c-0.7,0.2-2.2-1.9-3.3-3c1.6-1.7,3-3.5,4.9-4.8C734.6,863.9,736.5,865.8,738.8,867.7z
			"/>
		<path d="M886.3,630.1c2.1,1.9,3.1,2.9,4.1,3.8c-1.8,1.8-3.5,3.6-5.5,5.1c-0.2,0.1-3-2.2-2.8-2.7
			C883,634.4,884.5,632.6,886.3,630.1z"/>
	</g>
</g>
</svg>
